<?xml version="1.0" standalone="no"?>
<!DOCTYPE svg PUBLIC "-//W3C//DTD SVG 20010904//EN"
 "http://www.w3.org/TR/2001/REC-SVG-20010904/DTD/svg10.dtd">
<svg version="1.0" xmlns="http://www.w3.org/2000/svg"
 width="1024.000000pt" height="1024.000000pt" viewBox="0 0 1024.000000 1024.000000"
 preserveAspectRatio="xMidYMid meet">
<metadata>
Created by potrace 1.14, written by Peter Selinger 2001-2017
</metadata>
<g transform="translate(0.000000,1024.000000) scale(0.100000,-0.100000)"
fill="#000000" stroke="none">
<path d="M3710 9605 l0 -45 -215 0 -215 0 0 -55 0 -55 -100 0 -100 0 0 -50 0
-50 -155 0 -155 0 0 -55 0 -55 -105 0 -105 0 0 -55 0 -55 -109 0 -110 0 -3
-52 -3 -53 -52 -3 -53 -3 0 -50 c0 -53 1 -52 -70 -53 l-35 -1 -3 -57 -3 -57
-52 2 -52 2 0 -50 0 -50 -52 -3 -53 -3 0 -58 0 -58 -50 5 -50 5 0 -44 c0 -24
-4 -49 -8 -56 -4 -6 -30 -13 -57 -15 l-50 -3 -3 -197 -2 -198 -80 0 -79 0 -3
-152 -3 -153 -52 -3 -53 -3 0 -620 0 -619 50 0 50 0 0 -100 0 -100 -50 0 -50
0 0 -54 c0 -58 -8 -66 -72 -66 l-28 0 0 -100 0 -100 -50 0 -50 0 0 -445 0
-445 50 0 50 0 0 -60 0 -60 50 0 50 0 0 -50 0 -50 49 0 48 0 7 -70 7 -69 77
-3 77 -3 5 -50 5 -50 51 -3 52 -3 7 -54 6 -55 49 0 49 0 3 -52 3 -53 47 3 46
3 7 -55 7 -56 48 0 48 0 4 -248 c2 -136 2 -253 0 -259 -3 -8 -24 -13 -58 -13
l-54 0 0 -105 0 -105 -45 0 -45 0 -1 -42 c-1 -24 -2 -72 -3 -108 l-1 -65 -107
-3 -108 -3 0 -49 0 -50 -52 -2 c-29 0 -140 0 -245 2 l-193 2 0 -56 0 -56 -144
0 -145 0 -3 -52 -3 -53 -148 -3 -147 -3 0 -49 0 -50 -125 0 -125 0 0 -59 0
-60 -56 -7 c-31 -3 -80 -4 -110 -1 l-54 6 0 -50 0 -49 -60 0 -60 0 0 -1360 0
-1360 4360 0 4360 0 -2 3816 -3 3816 -137 -1 -138 -2 0 55 0 56 883 2 882 3 3
58 3 57 -961 0 c-528 0 -963 1 -967 3 -5 1 -9 -22 -11 -50 l-3 -53 -55 0 -54
0 -2 -3472 -3 -3473 -52 -3 -53 -3 0 55 0 56 -80 0 -80 0 0 54 0 55 -124 -6
-125 -6 -3 59 c-2 46 -6 58 -18 56 -8 -2 -50 -1 -92 3 l-78 7 0 49 0 49 -61 0
-61 0 4 53 3 52 -52 3 -53 3 0 50 0 49 -55 0 -55 0 0 56 0 57 -75 -5 -75 -5 0
54 0 53 -90 0 c-83 0 -90 1 -90 20 0 18 -7 20 -55 20 l-55 0 0 55 0 55 -105 0
-105 0 0 50 0 50 -61 0 -60 0 3 43 3 42 -57 -3 -58 -4 0 51 0 51 -55 0 -55 0
0 45 0 45 -55 0 -55 0 0 50 c0 54 -1 54 73 50 l37 -2 0 56 0 56 55 0 55 0 0
33 c0 68 8 77 61 77 l48 0 3 53 3 52 53 3 52 3 0 93 c0 105 1 106 71 106 22 0
38 4 35 9 -3 5 -3 30 0 55 l7 46 53 0 54 0 2 162 3 163 52 3 52 3 3 112 3 112
52 3 52 3 3 97 3 97 53 3 52 3 0 270 0 269 50 0 49 0 3 147 3 148 53 3 52 3 0
790 0 789 55 0 55 0 0 105 0 105 55 0 55 0 0 200 0 200 -55 0 -55 0 0 520 0
520 -55 0 -55 0 0 155 0 155 -55 0 -55 0 0 100 0 100 -50 0 -50 0 0 100 0 100
-55 0 -55 0 0 60 0 60 -61 0 -60 0 3 103 3 102 -53 0 -52 0 0 58 0 57 -110 0
-110 0 0 53 0 52 -52 0 -53 0 -1 50 -1 50 -56 3 -57 3 0 54 0 55 -109 0 -110
0 -3 53 -3 52 -107 3 -108 3 0 49 0 50 -105 0 -105 0 0 55 0 55 -365 0 -365 0
0 45 0 45 -590 0 -590 0 0 -45z m1902 -202 c0 -21 1 -44 1 -50 -1 -9 22 -13
76 -14 42 -1 68 -3 59 -6 -13 -3 -18 -15 -18 -42 l0 -38 45 3 c25 1 45 -2 45
-7 0 -5 30 -9 66 -9 l66 0 -7 -46 -7 -46 36 4 c19 2 33 1 30 -3 -5 -9 49 -19
107 -19 l49 0 0 -45 c0 -51 8 -55 46 -20 14 13 31 22 37 18 6 -4 8 4 5 21 -3
14 -1 26 3 26 5 0 9 -25 9 -55 l0 -55 55 0 55 0 0 -32 c0 -68 8 -78 60 -78 45
0 48 -2 54 -31 3 -17 6 -43 6 -56 0 -23 3 -24 46 -22 52 4 64 -7 64 -63 l0
-37 53 -3 52 -3 3 -52 3 -53 50 0 49 0 0 -50 c0 -55 0 -54 78 -50 l32 2 0
-111 0 -111 55 0 55 0 0 -95 0 -95 50 0 49 0 3 -157 3 -158 53 -3 52 -3 0
-460 0 -459 -49 0 -50 0 -3 48 -3 47 -215 0 -215 0 -3 -46 c-3 -44 -5 -47 -35
-52 -18 -3 -65 -4 -104 -2 l-73 3 0 -44 c0 -23 -6 -46 -12 -51 -7 -4 -60 -8
-118 -8 l-105 0 -1 -40 c0 -41 -14 -51 -71 -54 -23 -1 -23 0 -23 145 l0 146
-64 -4 -64 -3 5 144 c3 93 1 141 -5 137 -6 -3 -9 -59 -8 -136 1 -109 -1 -130
-13 -130 -12 0 -12 -3 -3 -12 7 -7 12 -20 12 -31 0 -10 5 -15 10 -12 7 4 10
-74 10 -226 l0 -232 -45 5 c-39 5 -45 3 -46 -13 -1 -11 -3 -23 -4 -29 -1 -5
-3 -21 -4 -35 -1 -25 -1 -25 -106 -25 l-105 0 -2 298 -3 297 -52 3 -53 3 0
-33 c0 -47 -9 -55 -60 -59 l-45 -4 -5 195 -5 194 -50 0 -50 1 -3 -193 -2 -192
-205 0 -204 0 -3 48 -3 47 -95 0 -95 0 -5 45 -5 45 -52 -1 -52 -2 -3 52 -3 51
-97 3 -97 3 -3 47 -3 47 -73 -3 -74 -4 3 49 3 48 -79 5 -80 5 -3 45 -3 45
-234 -3 -235 -3 0 -44 0 -45 -55 0 -55 0 0 -51 0 -51 -49 4 c-48 3 -50 2 -55
-26 -3 -16 -6 -39 -6 -52 0 -22 -4 -24 -50 -24 l-50 0 0 -50 0 -50 -55 0 -55
0 0 -245 0 -245 55 0 54 0 3 -477 c2 -263 2 -479 1 -481 -2 -5 -34 -10 -64
-11 -26 -1 -27 -3 -25 -53 1 -50 2 -53 29 -54 15 -1 27 3 27 7 0 5 7 6 15 3
12 -5 15 2 15 32 0 53 8 62 60 65 l45 4 3 -113 3 -112 123 0 c68 0 164 -3 214
-6 l92 -7 0 -48 0 -49 480 0 480 0 0 55 0 55 -43 -6 c-54 -8 -69 8 -65 68 l3
43 53 3 52 3 0 55 0 54 50 0 50 0 0 -55 0 -55 -50 0 -51 0 3 -57 c2 -39 7 -58
16 -57 6 1 53 2 102 3 l90 1 0 115 0 115 56 0 56 0 -3 113 -4 112 50 3 c28 2
54 7 58 11 5 5 8 27 9 50 0 28 5 41 14 41 8 0 14 -5 14 -11 0 -8 4 -8 14 0 11
9 15 9 19 -1 3 -10 10 -8 24 7 13 14 19 34 18 65 l0 45 200 -2 200 -1 3 -29
c1 -15 5 -47 8 -70 l5 -43 55 0 54 0 -1 -172 c0 -114 -3 -165 -9 -150 -8 18
-17 22 -50 22 l-40 0 0 -220 0 -220 63 1 c34 1 79 -2 99 -6 l37 -7 3 -57 3
-56 53 -3 52 -3 0 -115 c0 -62 -1 -114 -2 -114 -2 0 -96 -3 -210 -7 l-206 -6
1 49 c2 57 23 51 -195 59 l-138 6 0 -54 0 -53 -52 1 -53 0 -3 -107 -3 -107 53
-3 53 -3 3 -42 c3 -39 1 -42 -27 -48 -17 -3 -40 -4 -51 0 -18 6 -20 2 -20 -49
l0 -56 -210 0 -210 0 0 -44 c0 -25 -5 -48 -11 -51 -5 -4 -54 -8 -107 -10 l-97
-3 -3 -56 -3 -57 -47 3 -47 3 -3 -53 -3 -53 -47 2 -47 3 -3 -52 -3 -52 -220 0
-219 0 0 50 0 50 -50 0 -50 0 0 -50 0 -50 -50 0 -50 0 0 50 0 50 -49 0 -49 0
-7 105 -7 104 -52 3 -51 3 -2 40 c-1 22 -2 46 -2 53 -1 9 -28 12 -101 12
l-100 0 0 50 0 50 -50 0 c-33 0 -50 4 -51 13 0 6 -1 32 -2 57 l-2 44 -52 -3
-53 -2 0 55 0 56 20 -20 c12 -12 33 -20 53 -20 l32 0 -2 117 c-1 65 -2 202 -2
306 l-1 187 -44 0 c-25 0 -47 -3 -50 -8 -11 -18 -18 -408 -7 -434 10 -28 10
-28 -28 -28 -22 0 -46 -3 -55 -6 -13 -5 -16 1 -16 32 0 73 -6 81 -56 76 l-44
-4 -2 189 -3 188 -52 3 -53 3 0 110 0 109 -50 0 -50 0 -2 113 c-1 61 -2 127
-1 146 0 19 -5 41 -12 48 -16 15 -45 17 -45 3 0 -5 -11 -10 -25 -10 l-25 0 0
485 c0 383 3 485 13 485 8 0 11 -14 8 -47 -3 -38 -1 -45 12 -40 11 4 17 -2 20
-21 2 -15 6 20 7 78 l4 105 5 -85 c6 -79 7 -73 13 80 10 242 8 412 -6 407 -7
-3 -10 -34 -9 -88 l1 -84 -13 85 c-9 55 -13 68 -12 38 1 -27 -1 -48 -5 -48 -4
0 -9 -12 -11 -27 -4 -26 -4 -26 -6 5 0 17 -6 32 -12 32 -8 0 -10 17 -7 50 3
28 2 53 -2 55 -4 3 -7 195 -6 427 l1 423 59 3 58 3 -4 50 -5 49 53 0 54 0 0
50 c0 54 -1 53 63 50 l37 -2 0 111 c0 92 3 111 15 111 8 0 15 8 16 18 0 14 2
14 7 2 4 -8 18 -15 32 -15 25 0 25 1 28 96 l3 96 102 9 102 9 0 48 c0 26 5 48
10 49 9 1 28 3 83 7 8 1 12 18 12 51 l0 50 105 0 105 0 0 55 0 54 108 3 107 3
2 45 c1 25 2 51 2 59 1 11 13 12 54 7 49 -6 51 -5 27 9 -25 14 -25 14 -2 15
19 0 22 5 22 40 l0 40 188 2 c103 1 201 2 217 3 28 1 30 3 33 48 l3 47 260 0
259 0 0 45 0 45 365 0 365 0 2 -37z m-2865 -2265 c-2 -13 -4 -3 -4 22 0 25 2
35 4 23 2 -13 2 -33 0 -45z m-70 -60 c-3 -7 -5 -2 -5 12 0 14 2 19 5 13 2 -7
2 -19 0 -25z m40 0 c-3 -8 -6 -5 -6 6 -1 11 2 17 5 13 3 -3 4 -12 1 -19z m13
-153 c0 -119 -4 -145 -25 -145 -6 0 -17 -10 -23 -22 -8 -18 -11 10 -11 120 -1
84 3 141 8 138 5 -4 12 0 14 6 3 7 5 -12 5 -42 -1 -53 -1 -54 -8 -15 l-7 40
-2 -53 c0 -33 3 -51 9 -47 6 3 10 -1 10 -9 0 -9 -4 -16 -10 -16 -5 0 -10 -20
-10 -45 0 -25 5 -45 10 -45 6 0 10 20 10 45 0 25 3 45 8 45 4 0 6 38 5 85 -1
52 2 83 7 80 6 -4 10 -57 10 -120z m17 -67 c-2 -35 -3 -7 -3 62 0 69 1 97 3
63 2 -35 2 -91 0 -125z m-27 -108 c0 -5 -2 -10 -4 -10 -3 0 -8 5 -11 10 -3 6
-1 10 4 10 6 0 11 -4 11 -10z m1217 -312 c-3 -7 -5 -2 -5 12 0 14 2 19 5 13 2
-7 2 -19 0 -25z m-2023 -133 c-4 -8 -3 -31 0 -50 l7 -35 99 0 100 0 0 -55 0
-55 55 0 55 0 0 -49 0 -50 53 -3 52 -3 3 -107 3 -108 54 0 55 0 0 -61 0 -62
-61 7 c-34 3 -82 6 -105 6 l-44 0 0 55 c0 41 -4 56 -17 64 -17 10 -16 10 2 11
11 0 16 3 10 8 -6 4 -11 23 -10 42 0 34 -1 35 -37 35 -21 0 -38 -4 -38 -9 0
-5 -3 -6 -7 -2 -5 4 -10 33 -13 64 l-5 57 -52 3 -53 3 0 50 0 49 -50 0 c-48 0
-50 -1 -50 -27 0 -62 -9 -73 -56 -73 l-43 0 -3 53 -3 52 -47 3 -48 3 0 100 0
99 100 0 c84 0 99 -2 94 -15z m1929 -27 c-4 -38 -3 -41 10 -25 15 18 49 24 45
7 -3 -12 626 -14 669 -4 13 4 35 2 51 -4 27 -9 28 -9 24 24 -3 21 0 34 7 34 6
0 11 -5 11 -10 0 -6 15 -4 36 5 21 8 66 15 106 15 l69 0 -2 -50 c-2 -27 0 -52
2 -55 3 -2 29 -5 58 -6 l52 -2 -2 -79 c-2 -46 -7 -78 -14 -78 -5 0 -3 -5 5
-10 16 -10 15 -11 -40 -15 -42 -3 -51 1 -43 20 3 9 18 15 39 15 34 0 34 1 33
43 -2 42 -2 42 -8 8 -3 -19 -12 -36 -19 -37 -7 -1 -8 0 -2 3 12 5 4 23 -11 23
-5 0 -9 -7 -9 -15 0 -8 -4 -15 -8 -15 -5 0 -7 14 -4 30 3 23 0 30 -12 30 -31
0 -15 44 19 53 12 3 5 5 -17 6 -24 1 -41 7 -47 19 -6 9 -10 13 -10 7 0 -5 6
-19 14 -29 17 -23 20 -56 5 -56 -5 0 -10 6 -10 13 0 9 -2 9 -8 0 -4 -6 -16
-13 -27 -15 -17 -3 -20 3 -23 46 -2 27 1 52 6 55 6 3 -41 6 -104 6 l-114 0 0
-35 c0 -71 -7 -80 -59 -80 -47 0 -47 0 -43 -30 2 -16 1 -42 -2 -56 -7 -25 -10
-26 -56 -22 l-50 5 0 -283 0 -284 50 0 c48 0 49 -1 55 -34 4 -18 5 -44 3 -57
l-3 -24 -190 -3 c-104 -2 -227 0 -272 3 l-82 7 -3 56 -3 57 -100 1 -100 2 -3
313 c-3 226 -7 316 -15 321 -9 6 -9 8 1 8 8 0 12 17 12 51 0 36 3 48 12 43 7
-5 9 -2 5 8 -5 13 -1 14 29 5 28 -9 37 -7 54 8 17 16 20 26 14 62 -5 35 -3 43
9 43 12 0 14 -9 10 -42z m82 14 c-8 -8 -25 10 -19 20 4 6 9 5 15 -3 4 -7 6
-15 4 -17z m2875 4 c0 -36 -23 -50 -61 -37 -40 14 -99 14 -99 1 0 -5 16 -10
35 -10 19 0 35 -3 35 -8 0 -4 17 -6 38 -4 39 4 102 -21 83 -33 -6 -3 -11 -11
-11 -18 0 -8 3 -8 12 1 17 17 29 15 22 -3 -4 -8 -16 -15 -28 -16 -20 0 -20 -1
-1 -9 15 -7 10 -9 -24 -9 -52 -1 -51 -9 2 -13 32 -2 36 -5 31 -21 -4 -13 -2
-17 5 -13 6 4 11 20 11 37 0 16 5 29 11 29 5 0 8 -4 5 -9 -4 -5 4 -6 16 -3 20
5 20 7 5 10 -13 3 -17 10 -14 22 3 11 0 21 -7 23 -6 2 3 4 19 4 17 0 24 -2 16
-5 -11 -4 -11 -6 0 -13 11 -7 9 -9 -5 -9 -18 0 -19 -1 -3 -13 16 -11 18 -41
24 -250 l6 -237 -26 0 c-14 0 -32 -3 -40 -6 -9 -3 -17 3 -22 18 -6 20 -8 18
-15 -17 -5 -22 -9 -82 -9 -132 l-1 -93 -50 0 -50 0 0 -59 c0 -33 -5 -63 -11
-67 -6 -3 -53 -3 -105 1 -104 8 -103 7 -88 84 6 30 9 31 55 31 l48 0 3 53 3
52 48 3 47 3 0 130 0 129 -110 0 -110 0 0 55 0 55 110 0 110 0 0 45 0 45 -50
0 -50 0 0 55 0 54 -112 3 -113 3 -3 39 -3 39 59 -6 c32 -4 67 -10 77 -13 13
-5 16 -4 11 4 -4 7 -1 12 8 12 8 0 16 -5 18 -12 2 -6 2 19 0 55 l-4 67 126 0
126 0 0 -24z m-483 -196 c4 0 1 5 -7 10 -12 8 -12 10 -1 10 8 0 20 -8 27 -17
13 -17 14 -17 8 0 -3 9 -2 17 4 17 13 0 22 -64 10 -69 -6 -2 -4 -7 3 -12 14
-9 0 -12 -66 -13 -29 -1 -30 -3 -33 -53 l-3 -53 -50 0 c-49 0 -68 17 -29 27
22 6 26 18 10 28 -5 3 -10 22 -10 40 0 27 3 33 16 28 13 -5 15 0 12 23 -2 24
1 30 22 32 14 2 29 8 34 12 5 5 17 5 27 0 10 -6 21 -10 26 -10z m-2698 -2 c-1
-7 -5 -24 -9 -38 -7 -22 -8 -21 -9 13 -1 20 4 37 9 37 6 0 10 -6 9 -12z m1361
-222 c0 -66 -4 -68 -119 -64 l-81 3 0 57 0 58 100 0 100 0 0 -54z m1168 -101
l-2 -100 -3 88 c-4 94 -22 121 -24 35 -1 -67 -6 -52 -11 31 -4 50 -2 60 7 47
17 -23 27 -20 20 7 -5 17 -4 19 4 7 6 -9 10 -58 9 -115z m-62 33 l-12 -47 -10
46 c-9 37 -9 43 1 29 11 -14 14 -14 18 -2 3 8 1 16 -5 18 -7 3 -8 10 -3 17 16
27 23 -13 11 -61z m-3921 2 c-3 -5 -12 -10 -18 -10 -7 0 -6 4 3 10 19 12 23
12 15 0z m4943 -20 l22 0 0 -515 0 -515 -50 0 -50 0 0 -142 c0 -79 -3 -173 -7
-210 l-6 -68 -48 0 -49 0 0 -105 0 -105 -55 0 -55 0 0 -104 0 -105 -52 -3 -53
-3 -3 -47 c-3 -45 -5 -48 -37 -54 -56 -10 -67 -1 -63 53 l3 48 -49 1 c-61 1
-64 8 -65 127 l-1 87 -55 0 -55 0 0 56 0 55 -55 -6 -55 -7 0 56 0 56 -105 0
-105 0 0 95 c0 52 0 98 0 103 0 4 23 5 50 4 l50 -4 0 56 0 56 55 0 55 0 -2
173 -3 172 -52 3 -53 3 0 97 c0 83 -3 99 -18 108 -24 16 -47 -2 -49 -39 -1
-23 2 -27 19 -21 15 4 19 2 16 -7 -3 -8 -19 -15 -36 -17 -29 -3 -32 0 -32 23
0 14 5 36 11 47 8 15 8 19 0 14 -6 -4 -11 -3 -11 2 0 6 7 13 16 16 9 3 180 6
380 6 l364 0 0 55 0 55 61 0 62 0 -7 110 -7 110 55 0 56 0 0 121 c0 121 0 121
23 115 12 -3 32 -6 45 -6z m-1032 -134 c0 -41 -4 -69 -8 -63 -5 8 -8 7 -8 -4
0 -13 9 -17 35 -17 39 0 44 5 18 16 -15 6 -17 15 -12 52 6 44 6 44 7 8 2 -47
22 -61 23 -16 0 28 2 25 15 -22 8 -30 14 -80 12 -110 l-3 -55 -50 0 -50 0 0
85 c0 76 12 200 19 200 2 0 2 -33 2 -74z m-2461 44 c3 -5 1 -10 -4 -10 -6 0
-11 5 -11 10 0 6 2 10 4 10 3 0 8 -4 11 -10z m2645 -305 l0 -55 -55 0 c-61 0
-64 5 -49 79 6 30 9 31 55 31 l49 0 0 -55z m-4468 -307 c12 -14 18 -32 15 -46
-6 -29 7 -36 60 -33 l43 3 0 -46 0 -45 48 -3 47 -3 3 -63 3 -63 52 3 c47 3 52
1 55 -19 3 -23 5 -23 168 -23 l164 0 0 -149 0 -148 -147 -5 c-82 -3 -154 -3
-160 -1 -8 3 -13 24 -13 54 l0 49 -55 0 -55 0 0 50 0 50 -50 0 -50 0 -1 93
c-1 50 -1 98 0 105 2 13 -65 18 -195 13 -67 -3 -71 -2 -88 25 -18 26 -18 27 0
20 10 -4 15 -4 11 1 -5 4 -21 8 -37 9 -46 2 -60 11 -60 39 0 15 -4 35 -10 45
-7 13 -6 21 5 30 12 10 15 9 16 -6 1 -11 7 4 15 31 12 46 13 47 11 13 -2 -21
1 -38 5 -38 4 0 8 7 8 14 0 11 15 16 53 18 42 2 51 6 49 20 -2 15 12 22 57 27
7 0 22 -9 33 -21z m-232 -12 c0 -3 -4 -8 -10 -11 -5 -3 -10 -1 -10 4 0 6 5 11
10 11 6 0 10 -2 10 -4z m-15 -156 c3 -5 1 -10 -4 -10 -6 0 -11 5 -11 10 0 6 2
10 4 10 3 0 8 -4 11 -10z m2456 -1010 c5 0 9 -22 9 -50 l0 -50 -45 0 -45 0 0
49 c0 43 3 50 23 54 12 2 28 3 35 1 8 -2 18 -4 23 -4z m1957 5 l82 -8 0 -48 0
-49 55 0 55 0 0 -50 0 -50 -485 0 -485 0 0 -55 0 -55 533 0 c292 0 537 -4 543
-8 6 -4 10 -23 8 -42 -2 -19 0 -63 3 -98 4 -50 9 -63 22 -61 9 1 28 1 44 0
l27 -1 0 -105 0 -105 -50 0 -50 0 0 -110 0 -110 -100 0 -100 0 0 50 c0 28 -4
50 -10 50 -5 0 -11 8 -11 18 -1 16 -2 16 -6 0 -2 -10 -9 -18 -14 -18 -6 0 -8
4 -5 9 3 5 -1 11 -9 14 -9 4 -12 1 -9 -8 4 -10 -2 -13 -23 -12 -26 2 -28 -1
-31 -40 -2 -29 -8 -43 -18 -43 -8 0 -14 4 -14 9 0 12 -39 21 -46 10 -3 -5 5
-9 18 -9 22 0 21 -1 -6 -15 -15 -8 -30 -15 -32 -15 -2 0 -4 50 -4 110 l0 110
-50 0 -49 0 -3 103 -3 102 -172 3 -173 2 0 -54 0 -55 -47 -3 -48 -3 -3 -107
-3 -108 -47 1 c-26 0 -56 4 -67 8 -11 5 -25 4 -32 -1 -10 -8 -13 -6 -13 6 0
10 -7 24 -15 32 -13 14 -15 14 -15 0 0 -9 5 -16 11 -16 5 0 7 -5 4 -10 -4 -6
-10 -8 -15 -5 -12 7 -20 -21 -20 -71 l0 -44 -50 0 -50 0 0 -49 0 -48 -87 -5
c-49 -3 -115 -5 -148 -3 l-60 2 -3 51 -3 52 -49 0 -49 0 -3 113 -3 112 -47 -3
-48 -4 0 46 0 46 43 -1 c39 -1 40 -2 12 -9 l-30 -8 30 -2 c27 -1 28 -2 10 -11
l-20 -9 20 3 c11 1 20 7 20 14 0 6 3 15 8 19 4 4 7 40 7 79 0 111 7 135 39
134 24 -2 24 -2 3 -6 -32 -6 -22 -28 14 -30 l29 -2 -30 9 c-16 4 -22 8 -13 9
9 0 21 9 27 19 5 9 13 16 18 14 4 -1 9 20 11 47 l3 49 104 7 105 7 0 49 0 49
50 0 50 0 0 55 0 55 58 0 57 0 -3 53 -4 53 389 3 c214 1 426 0 471 -4z m-978
-2425 l0 -130 -50 0 -50 0 0 -105 0 -105 -55 0 -55 0 0 -55 0 -55 -99 0 -100
0 -3 -52 -3 -53 -47 -3 -48 -3 0 -50 0 -49 -55 0 -55 0 0 -55 0 -55 -50 0 -50
0 0 -215 0 -215 -221 2 -222 3 2 85 c3 114 0 120 -60 120 l-49 0 0 375 0 375
105 0 104 0 3 -102 3 -103 48 -3 47 -3 2 183 c1 101 2 197 3 213 1 17 2 46 3
65 l2 35 375 -3 375 -3 0 46 0 45 100 0 100 0 0 -130z"/>
<path d="M5301 7388 c1 -54 9 -63 59 -63 l45 0 0 45 -1 45 -52 3 -52 3 1 -33z"/>
<path d="M6068 7386 c-3 -31 -2 -34 15 -24 15 8 18 7 12 -3 -6 -9 -3 -11 8 -6
10 4 20 0 26 -10 8 -14 9 -14 14 3 2 10 5 31 6 46 0 22 -3 26 -22 25 -12 0
-25 -6 -29 -12 -5 -6 -8 -6 -8 3 0 27 -18 10 -22 -22z m39 -2 c-3 -3 -12 -4
-19 -1 -8 3 -5 6 6 6 11 1 17 -2 13 -5z"/>
<path d="M5993 7209 c-10 -10 -13 -54 -11 -163 1 -83 3 -131 6 -106 3 33 6 40
11 25 12 -30 21 118 13 193 -6 51 -9 61 -19 51z m4 -121 c-2 -24 -4 -7 -4 37
0 44 2 63 4 43 2 -21 2 -57 0 -80z"/>
<path d="M2693 7165 c0 -22 2 -30 4 -17 2 12 2 30 0 40 -3 9 -5 -1 -4 -23z"/>
<path d="M5962 7020 c0 -14 2 -19 5 -12 2 6 2 18 0 25 -3 6 -5 1 -5 -13z"/>
<path d="M5962 6940 c0 -14 2 -19 5 -12 2 6 2 18 0 25 -3 6 -5 1 -5 -13z"/>
<path d="M2712 6510 c0 -14 2 -19 5 -12 2 6 2 18 0 25 -3 6 -5 1 -5 -13z"/>
<path d="M2692 6490 c0 -14 2 -19 5 -12 2 6 2 18 0 25 -3 6 -5 1 -5 -13z"/>
<path d="M2732 6420 c-1 -36 -4 -87 -6 -115 -3 -41 -2 -44 4 -15 5 27 7 16 9
-47 0 -46 5 -83 9 -83 4 0 8 73 8 163 0 121 -2 140 -6 77 l-6 -85 -5 85 c-5
83 -5 84 -7 20z"/>
<path d="M2685 6420 c-3 -5 -1 -10 4 -10 6 0 11 5 11 10 0 6 -2 10 -4 10 -3 0
-8 -4 -11 -10z"/>
<path d="M2694 6250 c0 -52 1 -74 3 -47 2 26 2 68 0 95 -2 26 -3 4 -3 -48z"/>
<path d="M2723 6200 c0 -25 2 -35 4 -22 2 12 2 32 0 45 -2 12 -4 2 -4 -23z"/>
<path d="M3720 5085 c0 -19 5 -35 11 -35 7 0 10 12 7 30 -4 26 -2 30 16 28 13
-2 24 -13 27 -28 6 -24 7 -24 9 5 2 30 2 30 10 5 l8 -25 1 28 c1 26 -1 27 -44
27 -45 0 -45 0 -45 -35z"/>
<path d="M5335 4991 c-26 -5 -30 -11 -33 -41 -2 -20 1 -47 7 -60 8 -21 10 -16
10 33 1 31 4 57 9 57 4 0 7 -23 7 -52 0 -32 5 -53 13 -55 7 -3 12 4 11 19 0
22 -1 22 -9 3 -7 -16 -9 -11 -9 20 0 22 4 47 9 55 7 11 9 5 5 -20 -3 -26 -3
-28 3 -11 4 14 14 27 21 29 8 3 11 0 8 -5 -3 -5 7 -10 23 -10 18 0 30 6 30 14
0 9 -13 13 -41 13 -24 0 -38 4 -34 10 3 6 5 9 3 9 -2 -1 -16 -4 -33 -8z"/>
<path d="M5415 4993 c11 -3 28 -13 38 -24 18 -20 42 -25 51 -11 10 17 -11 30
-59 34 -27 3 -41 3 -30 1z m75 -23 c0 -5 -4 -10 -10 -10 -5 0 -10 5 -10 10 0
6 5 10 10 10 6 0 10 -4 10 -10z"/>
<path d="M5371 4924 c0 -11 3 -14 6 -6 3 7 2 16 -1 19 -3 4 -6 -2 -5 -13z"/>
<path d="M3323 4843 c9 -2 23 -2 30 0 6 3 -1 5 -18 5 -16 0 -22 -2 -12 -5z"/>
<path d="M3758 4053 c7 -3 16 -2 19 1 4 3 -2 6 -13 5 -11 0 -14 -3 -6 -6z"/>
<path d="M3746 6192 c-3 -5 1 -9 9 -9 8 0 12 4 9 9 -3 4 -7 8 -9 8 -2 0 -6 -4
-9 -8z"/>
<path d="M4793 6185 c0 -8 4 -12 9 -9 4 3 8 9 8 15 0 5 -4 9 -8 9 -5 0 -9 -7
-9 -15z"/>
<path d="M4955 6190 c-3 -5 -1 -10 4 -10 6 0 11 5 11 10 0 6 -2 10 -4 10 -3 0
-8 -4 -11 -10z"/>
<path d="M4887 6162 c-8 -11 27 -49 41 -44 17 5 15 22 -3 22 -8 0 -15 7 -15
15 0 16 -15 21 -23 7z"/>
<path d="M4918 6043 c6 -2 18 -2 25 0 6 3 1 5 -13 5 -14 0 -19 -2 -12 -5z"/>
<path d="M6580 6300 c-10 -7 9 -10 64 -10 44 0 77 2 75 4 -11 9 -126 15 -139
6z"/>
<path d="M6560 6270 c0 -5 16 -10 35 -10 19 0 35 5 35 10 0 6 -16 10 -35 10
-19 0 -35 -4 -35 -10z"/>
<path d="M6560 6232 c0 -13 3 -13 12 -4 9 9 17 7 35 -10 20 -18 26 -20 33 -8
4 7 19 15 31 17 39 6 34 13 -9 15 -23 1 -55 2 -72 3 -21 1 -30 -3 -30 -13z"/>
<path d="M6575 6150 c-3 -5 -1 -10 4 -10 6 0 11 5 11 10 0 6 -2 10 -4 10 -3 0
-8 -4 -11 -10z"/>
<path d="M6609 6147 c5 -5 24 -7 42 -5 33 3 33 4 -8 8 -23 3 -39 2 -34 -3z"/>
<path d="M6887 6091 c-4 -17 -3 -21 5 -13 5 5 8 16 6 23 -3 8 -7 3 -11 -10z"/>
<path d="M6828 6027 c-4 -37 -3 -77 2 -90 7 -18 9 -15 9 21 1 23 6 42 11 42 6
0 10 21 9 48 -1 37 -3 42 -8 22 l-8 -25 -4 25 c-3 14 -8 -5 -11 -43z"/>
<path d="M6824 5759 c-3 -6 -1 -16 5 -22 8 -8 11 -5 11 11 0 24 -5 28 -16 11z"/>
<path d="M6298 6063 c6 -2 18 -2 25 0 6 3 1 5 -13 5 -14 0 -19 -2 -12 -5z"/>
<path d="M6235 6020 c3 -5 8 -10 11 -10 2 0 4 5 4 10 0 6 -5 10 -11 10 -5 0
-7 -4 -4 -10z"/>
<path d="M6765 4849 c18 -5 33 -5 39 1 7 7 -4 10 -29 9 -40 -1 -40 -1 -10 -10z"/>
<path d="M6728 4703 c7 -3 16 -2 19 1 4 3 -2 6 -13 5 -11 0 -14 -3 -6 -6z"/>
<path d="M6720 4680 c0 -5 7 -10 16 -10 8 0 12 5 9 10 -3 6 -10 10 -16 10 -5
0 -9 -4 -9 -10z"/>
<path d="M1781 5054 c0 -11 3 -14 6 -6 3 7 2 16 -1 19 -3 4 -6 -2 -5 -13z"/>
<path d="M1581 5004 c0 -11 3 -14 6 -6 3 7 2 16 -1 19 -3 4 -6 -2 -5 -13z"/>
<path d="M1560 4966 c0 -15 24 -16 37 -1 4 4 2 5 -4 1 -7 -4 -13 -2 -13 3 0 6
-4 11 -10 11 -5 0 -10 -6 -10 -14z"/>
<path d="M5130 3136 c-8 -23 9 -46 34 -46 12 0 16 10 16 34 0 29 -3 35 -21 33
-12 -1 -25 -10 -29 -21z m37 -17 c1 -12 1 -20 0 -18 -2 2 -9 12 -16 22 -11 14
-11 17 1 17 7 0 14 -10 15 -21z"/>
<path d="M7612 8483 l3 -528 152 0 153 0 0 158 0 157 45 0 45 0 0 370 0 370
-200 0 -200 0 2 -527z"/>
<path d="M7610 7540 l0 -150 155 0 155 0 0 150 0 150 -155 0 -155 0 0 -150z"/>
<path d="M8850 3775 l0 -3755 695 0 695 0 0 3755 0 3755 -695 0 -695 0 0
-3755z"/>
</g>
</svg>
